<svg xmlns="http://www.w3.org/2000/svg" width="800" height="800" viewBox="0 0 512 512"><path fill="#000" fill-rule="evenodd" d="m320 42.667.003 49.332a175.8 175.8 0 0 1 45.988 26.596l42.761-24.687 64 110.851-42.743 24.68A177.4 177.4 0 0 1 432 256c0 9.029-.68 17.899-1.991 26.562l42.743 24.679-64 110.851-42.76-24.687a175.8 175.8 0 0 1-45.99 26.596L320 469.333H192l-.002-49.332a175.8 175.8 0 0 1-45.988-26.595l-42.762 24.686-64-110.851 42.743-24.678A177.4 177.4 0 0 1 80 256c0-9.03.68-17.9 1.991-26.563L39.248 204.76l64-110.851 42.76 24.687a175.8 175.8 0 0 1 45.99-26.596L192 42.667zM256 192c-35.346 0-64 28.654-64 64s28.654 64 64 64 64-28.654 64-64-28.654-64-64-64"/></svg>