<svg xmlns="http://www.w3.org/2000/svg" width="800" height="800" viewBox="0 0 48 48"><g data-name="Layer 2"><path fill="none" d="M0 0h48v48H0z" data-name="invisible box"/><g data-name="icons Q2"><path d="M29 4a.9.9 0 0 0-.7.3L16.7 15H8a2 2 0 0 0-2 2v14a2 2 0 0 0 2 2h8.7l11.6 10.7a.9.9 0 0 0 .7.3 1 1 0 0 0 1-1V5a1 1 0 0 0-1-1M36 42a2.1 2.1 0 0 1-1.6-.8 2 2 0 0 1 .4-2.8 18 18 0 0 0 0-28.8 2 2 0 1 1 2.4-3.2A22.4 22.4 0 0 1 46 24a22.4 22.4 0 0 1-8.8 17.6 1.7 1.7 0 0 1-1.2.4"/><path d="M34 15.5v17a.5.5 0 0 0 .9.3 14 14 0 0 0 0-17.6.5.5 0 0 0-.9.3"/></g></g></svg>